<mxfile host="65bd71144e">
    <diagram id="bNh8HT7iF-fVU2sYkG-q" name="Page-1">
        <mxGraphModel dx="1058" dy="908" grid="1" gridSize="10" guides="1" tooltips="1" connect="1" arrows="1" fold="1" page="1" pageScale="1" pageWidth="827" pageHeight="1169" background="#1A1A1A" math="0" shadow="0">
            <root>
                <mxCell id="0"/>
                <mxCell id="1" parent="0"/>
                <mxCell id="3" value="User" style="swimlane;whiteSpace=wrap;html=1;align=center;" parent="1" vertex="1">
                    <mxGeometry x="80" y="130" width="485" height="220" as="geometry"/>
                </mxCell>
                <mxCell id="5" value="&lt;font style=&quot;font-size: 15px;&quot;&gt;name: String,&amp;nbsp;&lt;br&gt;gitusername: {type:String, unique: true},&lt;br&gt;email: {type:String, unique: true},&lt;br&gt;password: String,&lt;br&gt;profilePicture: String,&lt;br&gt;bio: String,&lt;br&gt;skills: [String],&lt;br&gt;bookmarkedProjects: {type: Schema.Types.ObjectId, ref: 'Project'},&lt;br&gt;&lt;br&gt;&lt;/font&gt;" style="text;html=1;align=left;verticalAlign=middle;resizable=0;points=[];autosize=1;strokeColor=none;fillColor=none;" parent="3" vertex="1">
                    <mxGeometry x="5" y="35" width="470" height="180" as="geometry"/>
                </mxCell>
                <mxCell id="7" value="Project" style="swimlane;whiteSpace=wrap;html=1;fontSize=15;startSize=23;" parent="1" vertex="1">
                    <mxGeometry x="85" y="585" width="400" height="245" as="geometry"/>
                </mxCell>
                <mxCell id="8" value="title: String,&lt;br&gt;gitusername: {type: Schema.Types.ObjectId, ref:'User'&amp;nbsp;&lt;br&gt;&lt;div style=&quot;&quot;&gt;&lt;span style=&quot;background-color: initial;&quot;&gt;projectURL: String,&lt;/span&gt;&lt;br&gt;&lt;/div&gt;&lt;div style=&quot;&quot;&gt;&lt;span style=&quot;background-color: initial;&quot;&gt;languagesUsed: [String],&lt;/span&gt;&lt;/div&gt;&lt;div style=&quot;&quot;&gt;&lt;span style=&quot;background-color: initial;&quot;&gt;skillsRequired: [String],&lt;br&gt;&lt;/span&gt;&lt;/div&gt;&lt;div style=&quot;&quot;&gt;&lt;div&gt;&lt;span style=&quot;background-color: initial;&quot;&gt;description: String,&amp;nbsp;&lt;/span&gt;&lt;/div&gt;&lt;/div&gt;&lt;div style=&quot;&quot;&gt;&lt;span style=&quot;background-color: initial;&quot;&gt;createdDate: {type: Date, default: Date.now},&lt;/span&gt;&lt;/div&gt;&lt;div style=&quot;&quot;&gt;&lt;span style=&quot;background-color: initial;&quot;&gt;createdBy: {type: Schema.Types.ObjectId, ref: 'User'}&lt;/span&gt;&lt;span style=&quot;background-color: initial;&quot;&gt;,&lt;/span&gt;&lt;/div&gt;&lt;div style=&quot;&quot;&gt;comments: [&lt;/div&gt;{type: Schema.Types.ObjectId, ref: 'Comment'}]&lt;br&gt;bookmarks: {type: Schema.Types.ObjectId, ref: 'User'},&lt;br&gt;likes: {type: Schema.Types.ObjectId, ref: 'User'}" style="text;html=1;align=left;verticalAlign=middle;resizable=0;points=[];autosize=1;strokeColor=none;fillColor=none;fontSize=15;" parent="7" vertex="1">
                    <mxGeometry x="5" y="15" width="390" height="230" as="geometry"/>
                </mxCell>
                <mxCell id="9" value="Comment" style="swimlane;whiteSpace=wrap;html=1;fontSize=15;" parent="1" vertex="1">
                    <mxGeometry x="660" y="510" width="430" height="130" as="geometry"/>
                </mxCell>
                <mxCell id="10" value="text: String,&lt;br&gt;datePosted:&lt;span style=&quot;&quot;&gt;&amp;nbsp;{type: Date, default: Date.now},&lt;br&gt;&lt;/span&gt;postedBy:&amp;nbsp;&amp;nbsp;{type: Schema.Types.ObjectId, ref: 'user'},&lt;br&gt;relatedProject: {type: Schema.Types.ObjectId, ref: 'Project'}&lt;br&gt;" style="text;html=1;align=left;verticalAlign=middle;resizable=0;points=[];autosize=1;strokeColor=none;fillColor=none;fontSize=15;" parent="9" vertex="1">
                    <mxGeometry x="10" y="30" width="420" height="90" as="geometry"/>
                </mxCell>
                <mxCell id="34" value="" style="endArrow=ERmany;startArrow=ERzeroToMany;html=1;exitX=0.5;exitY=0;exitDx=0;exitDy=0;endFill=0;startFill=0;targetPerimeterSpacing=30;sourcePerimeterSpacing=30;endSize=30;startSize=30;" edge="1" parent="1" source="7">
                    <mxGeometry width="50" height="50" relative="1" as="geometry">
                        <mxPoint x="290" y="490" as="sourcePoint"/>
                        <mxPoint x="290" y="350" as="targetPoint"/>
                    </mxGeometry>
                </mxCell>
                <mxCell id="35" value="" style="endArrow=ERone;startArrow=ERzeroToMany;html=1;endFill=0;startFill=0;targetPerimeterSpacing=30;sourcePerimeterSpacing=30;endSize=30;startSize=30;exitX=0;exitY=1;exitDx=0;exitDy=0;" edge="1" parent="1" source="9">
                    <mxGeometry width="50" height="50" relative="1" as="geometry">
                        <mxPoint x="660" y="550" as="sourcePoint"/>
                        <mxPoint x="490" y="660" as="targetPoint"/>
                    </mxGeometry>
                </mxCell>
            </root>
        </mxGraphModel>
    </diagram>
</mxfile>